Coordinates
version=1
nRows=15
nColumns=19
inDegrees=yes

Units are S.I. units (second, meters, Newtons, ...)
If the header above contains a line with 'inDegrees', this indicates whether rotational values are in degrees (yes) or radians (no).

endheader
time	pelvis_tilt	pelvis_list	pelvis_rotation	pelvis_tx	pelvis_ty	pelvis_tz	hip_flexion_r	hip_adduction_r	hip_rotation_r	knee_angle_r	knee_angle_r_beta	ankle_angle_r	hip_flexion_l	hip_adduction_l	hip_rotation_l	knee_angle_l	knee_angle_l_beta	ankle_angle_l
     11.71333333	     -8.12263062	     -4.60075023	     -6.72272238	      2.24645118	      1.04397656	      1.02393608	     31.09021947	      9.47437702	     -5.99570124	     10.04215755	      0.17526871	      1.21539884	    -14.04366930	    -10.47309082	    -19.02640247	     59.14772447	      1.03232254	    -17.43289871
     11.72000000	     -7.26146105	     -4.88842580	     -6.86823433	      2.24508182	      1.04106990	      1.02365819	     30.86961158	      9.40901523	     -7.48782026	     13.54944231	      0.23648238	      1.83217680	    -13.65795665	    -10.96058920	    -18.54951444	     62.40339373	      1.08914468	    -16.78102734
     11.72666667	     -6.48931753	     -5.05819500	     -7.08875561	      2.24349564	      1.03762900	      1.02321014	     30.84530459	      9.15152589	     -8.75834443	     17.51100781	      0.30562474	      2.59250890	    -13.05358571	    -11.26646908	    -18.05267976	     65.62393419	      1.14535372	    -15.98496383
     11.73333333	     -5.78407870	     -5.15442085	     -7.35912336	      2.24178803	      1.03378673	      1.02257908	     30.88063699	      8.76788536	     -9.70924482	     21.67468386	      0.37829460	      3.52450976	    -12.26596111	    -11.44145256	    -17.53844055	     68.78120939	      1.20045857	    -15.08405774
     11.74000000	     -5.22964921	     -5.13714771	     -7.68501598	      2.23988635	      1.02954252	      1.02183087	     31.02241751	      8.27572722	    -10.28339491	     25.89207274	      0.45190192	      4.64099850	    -11.18012023	    -11.47337813	    -17.01701166	     71.88980044	      1.25471372	    -14.08149257
     11.74666667	     -4.77335911	     -5.07787710	     -8.05139216	      2.23788014	      1.02518422	      1.02102531	     31.10708930	      7.79137406	    -10.44208005	     29.93824657	      0.52252097	      6.04106292	     -9.87410603	    -11.43710255	    -16.49992743	     74.89268462	      1.30712393	    -13.04586569
     11.75333333	     -4.45389984	     -5.00195542	     -8.44427115	      2.23572443	      1.02083894	      1.02020198	     31.13922908	      7.37330539	    -10.25875125	     33.69530655	      0.58809404	      7.68573870	     -8.29100747	    -11.37290705	    -15.96998197	     77.79809053	      1.35783283	    -11.99748867
     11.76000000	     -4.44354291	     -4.94455289	     -8.88725901	      2.23349164	      1.01640774	      1.01949551	     31.25121282	      7.11120142	     -9.78988835	     37.06225779	      0.64685843	      9.55727971	     -6.26518894	    -11.40306126	    -15.49220565	     80.61874583	      1.40706255	    -10.91830466
     11.76666667	     -4.61040556	     -4.86933664	     -9.30977957	      2.23114312	      1.01228471	      1.01884969	     31.27251403	      6.92252526	     -9.14916793	     39.95924128	      0.69742033	     11.64168801	     -3.90131153	    -11.44414067	    -14.95686931	     83.28181024	      1.45354180	     -9.89936105
     11.77333333	     -4.99218561	     -4.82156669	     -9.69391647	      2.22877363	      1.00848765	      1.01831803	     31.20619309	      6.83195021	     -8.46271410	     42.33622784	      0.73890657	     13.84083360	     -1.18474313	    -11.59627350	    -14.38787994	     85.78117608	      1.49716396	     -8.94661665
     11.78000000	     -5.53553992	     -4.79462013	     -9.98623217	      2.22638742	      1.00520166	      1.01778147	     30.98697474	      6.78607546	     -7.79179343	     44.15769631	      0.77069719	     16.08420326	      1.83443476	    -11.82362543	    -13.72819791	     88.06369077	      1.53700136	     -8.05652053
     11.78666667	     -6.20058624	     -4.75703623	    -10.14734337	      2.22408685	      1.00252747	      1.01729066	     30.56860100	      6.72044738	     -7.20165258	     45.41688330	      0.79267415	     18.29826475	      5.11182755	    -12.06496263	    -12.93533782	     90.09298445	      1.57241921	     -7.23972363
     11.79333333	     -6.89112245	     -4.77165706	    -10.13147343	      2.22196960	      1.00060075	      1.01678210	     29.83542623	      6.64663205	     -6.78052201	     46.09567921	      0.80452137	     20.36282296	      8.50773517	    -12.36560757	    -12.00551229	     91.81658485	      1.60250171	     -6.47273599
     11.80000000	     -7.57432329	     -4.70328486	     -9.94428324	      2.22004279	      0.99944415	      1.01626810	     28.82305637	      6.43739356	     -6.46263039	     46.27451360	      0.80764262	     22.21725748	     11.97624743	    -12.51146268	    -10.96188113	     93.17978984	      1.62629413	     -5.77260869
     11.80666667	     -8.01510238	     -4.65013124	     -9.56549362	      2.21850335	      0.99930143	      1.01569439	     27.25838202	      6.14335133	     -6.30444866	     45.94421128	      0.80187776	     23.83352649	     15.17283158	    -12.57499513	     -9.88305307	     94.13199210	      1.64291319	     -5.07109573
